<svg id="Capa_1" enable-background="new 0 0 512 512" height="512" viewBox="0 0 512 512" width="512" xmlns="http://www.w3.org/2000/svg"><path d="m340.193 195.602c-3.131 12.017-10.338 22.812-20.597 30.308h-64.733c-14.003-10.232-22.354-26.601-22.354-43.851 0-1.582.083-3.145.217-4.693-5.838-9.099-12.867-16.036-19.355-21.123-15.766-12.361-31.448-16.651-32.108-16.83-.496-.133-1-.196-1.501-.196-1.256 0-2.495.409-3.514 1.184-1.426 1.087-2.263 2.773-2.263 4.561v61.304c-43.176 19.541-74.079 61.201-78.093 110.423h-33.955c-3.177 0-5.776 2.585-5.776 5.743v76.967c0 3.16 2.599 5.743 5.776 5.743h49.19c15.776 29.421 42.329 52.246 74.41 63.309v29.549h63.339l3.286-22.218h69.683c1.668 0 3.326-.04 4.979-.101l3.3 22.318h63.339v-42.835c37.487-23.62 62.378-65.231 62.378-112.632v-14.933c-.002-67.397-50.327-123.1-115.648-131.997z" fill="#fe99a0"/><path d="m61.937 405.14h49.19c15.776 29.421 42.329 52.246 74.41 63.309v29.551h25v-49.552c-32.081-11.063-58.633-33.888-74.41-63.309h-49.19c-3.177 0-5.776-2.583-5.776-5.743v-62.71h-19.224c-3.177 0-5.776 2.585-5.776 5.743v76.967c0 3.161 2.599 5.744 5.776 5.744z" fill="#fd8087"/><path d="m140.626 351.207c-4.142 0-7.5-3.357-7.5-7.5v-39.628c0-4.143 3.358-7.5 7.5-7.5s7.5 3.357 7.5 7.5v39.628c0 4.143-3.358 7.5-7.5 7.5z" fill="#444"/><g fill="#fb8801"><path d="m455.839 512h-399.678c-4.142 0-7.5-3.357-7.5-7.5s3.358-7.5 7.5-7.5h399.679c4.142 0 7.5 3.357 7.5 7.5s-3.359 7.5-7.501 7.5z"/><path d="m260.227 134.764v-18.157c0-4.143-3.358-7.5-7.5-7.5s-7.5 3.357-7.5 7.5v30.625c4.196-4.997 9.279-9.226 15-12.468z"/><path d="m329.232 147.23v-25.469c0-4.143-3.358-7.5-7.5-7.5s-7.5 3.357-7.5 7.5v13.002c5.721 3.243 10.804 7.472 15 12.467z"/><path d="m321.73 99.62c-1.97 0-3.9-.801-5.3-2.2-1.4-1.39-2.2-3.32-2.2-5.3 0-1.971.8-3.91 2.2-5.301 1.4-1.399 3.33-2.199 5.3-2.199 1.98 0 3.91.8 5.31 2.199 1.39 1.391 2.19 3.33 2.19 5.301 0 1.979-.8 3.91-2.19 5.3-1.4 1.399-3.33 2.2-5.31 2.2z"/><path d="m287.229 127.648c2.77 0 5.491.21 8.151.606v-33.654c0-4.143-3.358-7.5-7.5-7.5s-7.5 3.357-7.5 7.5v33.49c2.246-.28 4.529-.442 6.849-.442z"/><path d="m287.88 71.27c-1.97 0-3.91-.8-5.3-2.2-1.4-1.39-2.2-3.329-2.2-5.3 0-1.97.8-3.91 2.2-5.3 1.39-1.4 3.32-2.2 5.3-2.2 1.97 0 3.91.8 5.3 2.2 1.4 1.39 2.2 3.33 2.2 5.3 0 1.971-.8 3.91-2.2 5.3-1.39 1.4-3.33 2.2-5.3 2.2z"/></g><path d="m254.538 226.909h65.383c13.95-10.067 23.03-26.398 23.03-44.851 0-30.602-24.948-55.41-55.722-55.41s-55.721 24.809-55.721 55.41c0 18.453 9.08 34.784 23.03 44.851z" fill="#ffdc48"/><path d="m313.75 182.059c0 14.565-11.874 26.37-26.521 26.37-14.646 0-26.519-11.805-26.519-26.37 0-14.564 11.873-26.371 26.519-26.371 14.647 0 26.521 11.806 26.521 26.371z" fill="#fea613"/><path d="m281.023 182.059c0-10.986 6.758-20.399 16.363-24.363-3.128-1.292-6.558-2.008-10.157-2.008-14.646 0-26.519 11.807-26.519 26.371 0 14.565 11.873 26.37 26.519 26.37 3.599 0 7.028-.716 10.157-2.007-9.605-3.964-16.363-13.376-16.363-24.363z" fill="#fb8801"/><path d="m249.343 55.689c0 30.756-24.948 55.689-55.721 55.689-30.775 0-55.722-24.934-55.722-55.689.001-30.755 24.947-55.689 55.723-55.689 30.773 0 55.72 24.934 55.72 55.689z" fill="#ffdc48"/><path d="m220.143 55.689c0 14.64-11.874 26.503-26.52 26.503-14.647 0-26.521-11.863-26.521-26.503 0-14.638 11.874-26.504 26.521-26.504 14.646 0 26.52 11.867 26.52 26.504z" fill="#fea613"/><path d="m187.415 55.689c0-11.041 6.758-20.502 16.364-24.486-3.128-1.298-6.558-2.018-10.156-2.018-14.647 0-26.521 11.866-26.521 26.504 0 14.64 11.874 26.503 26.521 26.503 3.598 0 7.028-.72 10.156-2.017-9.606-3.983-16.364-13.443-16.364-24.486z" fill="#fb8801"/><path d="m123.063 150.703c0 14.638-11.874 26.505-26.521 26.505s-26.52-11.867-26.52-26.505c0-14.64 11.873-26.506 26.52-26.506s26.521 11.867 26.521 26.506z" fill="#fea613"/><path d="m90.336 150.703c0-11.043 6.757-20.504 16.363-24.489-3.129-1.297-6.558-2.017-10.157-2.017-14.647 0-26.52 11.866-26.52 26.506 0 14.638 11.873 26.505 26.52 26.505 3.599 0 7.028-.72 10.157-2.018-9.606-3.984-16.363-13.446-16.363-24.487z" fill="#fb8801"/><path d="m423.399 116.242c0 14.638-11.874 26.505-26.52 26.505-14.647 0-26.52-11.867-26.52-26.505 0-14.641 11.874-26.506 26.52-26.506s26.52 11.866 26.52 26.506z" fill="#ffdc48"/><path d="m390.672 116.242c0-11.043 6.758-20.504 16.363-24.488-3.129-1.298-6.558-2.018-10.157-2.018-14.647 0-26.52 11.865-26.52 26.506 0 14.638 11.874 26.505 26.52 26.505 3.599 0 7.028-.72 10.157-2.018-9.605-3.983-16.363-13.445-16.363-24.487z" fill="#fea613"/><path d="m341.478 240.909h-105.113c-4.142 0-7.5-3.357-7.5-7.5s3.358-7.5 7.5-7.5h105.113c4.142 0 7.5 3.357 7.5 7.5s-3.358 7.5-7.5 7.5z" fill="#fd8087"/></svg>